# xmcd
#
# Track frame offsets: 
#        150
#        9120
#        18922
#        30440
#        39567
#        50518
#        64236
#        75319
#        85591
#        97945
#
# Disc length: 1431 seconds
#
# Revision: 0
# Processed by: cddbd v1.5.2PL0 Copyright (c) Steve Scherf et al.
# Submitted via: ExactAudioCopy v0.99pb4
#
DISCID=5e05950a
DTITLE=Willie Nelson - Willie Nelson
DYEAR=1900
DGENRE=Country
TTITLE0=The Ghost
TTITLE1=Let's Pretend
TTITLE2=I'm Gonna Lose a Lot of Teardrops
TTITLE3=Waiting Time
TTITLE4=Go Away
TTITLE5=No Tomorrow In Sight
TTITLE6=A New Way to Cry
TTITLE7=Broken Promises
TTITLE8=Happiness Lives Next Door
TTITLE9=Right From Wrong
EXTD=
EXTT0=
EXTT1=
EXTT2=
EXTT3=
EXTT4=
EXTT5=
EXTT6=
EXTT7=
EXTT8=
EXTT9=
PLAYORDER=
